<?xml version="1.0" encoding="UTF-8"?>
<svg xmlns="http://www.w3.org/2000/svg" xmlns:xlink="http://www.w3.org/1999/xlink" width="20px" height="20px" viewBox="0 0 20 20" version="1.1">
<g id="surface1">
<path style=" stroke:none;fill-rule:nonzero;fill:rgb(100%,100%,100%);fill-opacity:1;" d="M 0 8.324219 C 0 12.914062 3.734375 16.644531 8.320312 16.644531 C 10.433594 16.644531 12.367188 15.851562 13.835938 14.546875 L 19.140625 19.851562 C 19.238281 19.949219 19.367188 19.996094 19.496094 19.996094 C 19.628906 19.996094 19.753906 19.949219 19.851562 19.851562 C 20.050781 19.652344 20.050781 19.339844 19.851562 19.140625 L 14.546875 13.839844 C 15.847656 12.367188 16.640625 10.441406 16.640625 8.324219 C 16.640625 3.734375 12.90625 0.00390625 8.320312 0.00390625 C 3.734375 0.00390625 0 3.734375 0 8.324219 Z M 15.640625 8.324219 C 15.640625 12.355469 12.355469 15.640625 8.320312 15.640625 C 4.289062 15.640625 1.003906 12.355469 1.003906 8.324219 C 1.003906 4.289062 4.289062 1.003906 8.320312 1.003906 C 12.355469 1.003906 15.640625 4.285156 15.640625 8.324219 Z M 15.640625 8.324219 "/>
</g>
</svg>
